<?xml version="1.0" encoding="utf-8"?>
<!-- Generator: Adobe Illustrator 19.0.0, SVG Export Plug-In . SVG Version: 6.00 Build 0)  -->
<svg version="1.1" xmlns="http://www.w3.org/2000/svg" xmlns:xlink="http://www.w3.org/1999/xlink" x="0px" y="0px"
	 viewBox="0 0 1080 1545.2" style="enable-background:new 0 0 1080 1545.2;" xml:space="preserve">
<style type="text/css">
	.st0{fill:#FF5E53;}
	.st1{fill:#DD514E;}
	.st2{fill:#E5BABA;}
	.st3{fill:none;stroke:#603813;stroke-width:4;stroke-linecap:round;stroke-miterlimit:10;}
	.st4{fill:none;stroke:#DD4D4A;stroke-width:63;stroke-linecap:round;stroke-miterlimit:10;}
	.st5{fill:#FF5F54;}
	.st6{fill:#FFD9D9;}
	.st7{fill:#FFA573;}
	.st8{fill:#DD8558;}
	.st9{fill:#EBF5FC;stroke:#000000;stroke-miterlimit:10;}
	.st10{fill:#021E40;}
	.st11{fill:#1863AD;}
	.st12{fill:none;stroke:#E8514D;stroke-width:63;stroke-linecap:round;stroke-miterlimit:10;}
	.st13{fill:#FCB9C4;}
	.st14{fill:#521812;}
	.st15{fill:none;stroke:#681B17;stroke-width:14;stroke-linecap:round;stroke-miterlimit:10;}
	.st16{fill:#FD5E53;}
	.st17{fill:#FE5F54;}
</style>
<g id="Right_Leg">
	<path id="XMLID_36_" class="st0" d="M757,1514.7l-26.2,3.7c-8.3,1.2-26.7-4.9-33.5-30.7l-51.7-212.1c-6.1-24.4-3.4-53,13-68.5
		c5.9-5.6,5.9-9.1,17.8-13.9l4.1-1.8c12.1-4.4,16.5-6.1,28.2-5.3l8.6,1.5c7.5,0.7,11.1,1.6,17.3,5.8c20.6,14,33.7,39.4,34.9,66.6
		l12.5,214.6C780.7,1502.4,765.3,1513.6,757,1514.7z"/>
</g>
<g id="Left_Leg">
	<path id="XMLID_128_" class="st0" d="M468.2,1508.8l26.2,3.7c8.3,1.2,26.7-4.9,33.5-30.7l51.7-212.1c6.1-24.4,3.4-53-13-68.5
		c-5.9-5.6-5.9-9.1-17.8-13.9l-4.1-1.8c-12.1-4.4-16.5-6.1-28.2-5.3l-8.6,1.5c-7.5,0.7-11.1,1.6-17.3,5.8
		c-20.6,14-33.7,39.4-34.9,66.6l-12.5,214.6C444.5,1496.5,459.9,1507.7,468.2,1508.8z"/>
</g>
<g id="Tail">
	<path id="XMLID_118_" class="st1" d="M498.3,1244c0,0-97.3,78.3-234.9,2.4s-130.5-197-97.3-348.9S142.4,577.1,40.3,486.9
		c0,0,83.1-21.4,197,75.9s149.5,230.2,151.9,270.5c2.4,40.3,26.1,130.5,11.9,180.4c-14.2,49.8,59.3,2.4,94.9,57
		C531.6,1125.3,545.8,1189.4,498.3,1244z"/>
	<g id="Layer_17">
		<path id="XMLID_48_" class="st2" d="M237.3,562.9c-113.9-97.3-197-75.9-197-75.9c90.4,79.9,145.4,221.3,133.7,358.2l1.6,0.1
			c0,0,149.5-19,180.4-113.9c0.6-1.9,1.2-3.9,1.8-5.9C334.6,673.7,296.5,613.4,237.3,562.9z"/>
	</g>
	<path id="XMLID_117_" class="st3" d="M208.8,693.4c0,0,102,137.6,64.1,356"/>
	<path id="XMLID_116_" class="st3" d="M287.1,762.2c0,0,71.2,47.5,47.5,306.1"/>
</g>
<g id="Right_Hand">
	<path id="XMLID_31_" class="st4" d="M747,827.6c0,0,135.2,43.8,161.9,250.3"/>
</g>
<g id="Body">
	<path id="XMLID_15_" class="st5" d="M823.6,1014.4c15.3,129.8-39.8,266.8-202.9,272.3c-206.6,7-251.2-113.5-244.5-244.5
		c9.6-189.6,81.4-316.6,244.5-317.9C735.7,723.4,803.4,843.2,823.6,1014.4z"/>
	<path id="XMLID_24_" class="st6" d="M631.2,867.5c5.1-0.2,99-11.3,118.7,124.9c20.2,140,0.3,184.8-14.7,203.1
		c-31.1,38-128.9,78.2-198.9-3.7c-70-81.9-36.8-239.7,26.1-303.8c23.9-24.3,40.3-19.4,49.4-20C618.3,867.5,631.1,867.5,631.2,867.5z
		"/>
	<g id="Layer_11">
		<path id="XMLID_110_" class="st7" d="M442.4,809.1c0,0-50.9,52.2-65.1,191c0,0,200.3,201.5,451.3,41.3c0,0,4-94.1-70.8-247.2
			c0,0-130.7-64.7-287.4-18.4L442.4,809.1z"/>
	</g>
	<path id="XMLID_39_" class="st8" d="M757.8,794.2c0,0-130.7-64.7-287.4-18.4l-2.8,3.4c65.7,50.6,212,142.8,304.1,44.9
		C767.5,814.4,762.8,804.5,757.8,794.2z"/>
</g>
<g id="Book">
	<path id="XMLID_86_" class="st9" d="M881.2,959.2c0,0-34.8-28.5-89.4-28.5c-72.8,0-166.9-7.1-206.5-7.9l-170.9,199.3
		c0,0,11.1,10.3,11.9,19c0.8,8.7,292.7,12.7,292.7,12.7l107.6,5.5l210.4-231c0,0-19,2.4-26.1-7.9
		C930.3,936.2,874.9,946.5,881.2,959.2z"/>
	<path id="XMLID_82_" class="st10" d="M1040.7,927.2L828.9,1164l-411.1-14.2L586.9,945l254.5,19.6
		C841.4,964.6,939.3,978.9,1040.7,927.2z"/>
	<path id="XMLID_75_" class="st11" d="M921.7,964.2L755,1165.8c0,0-41.4,8.9-66.4-6.5l152.7-194.7
		C841.4,964.6,884,972.8,921.7,964.2z"/>
</g>
<g id="Left_Hand">
	<path id="XMLID_17_" class="st12" d="M471.1,806.1c0,0-134.1,118.2,19.9,248.2"/>
</g>
<g id="Head">
	<path id="XMLID_62_" class="st6" d="M305.6,590.9c0,0-10.7,32-26.7,32s3.6,21.4,14.2,24.9c10.7,3.6,5.3,16,0,19.6
		c-5.3,3.6,163.6,105.8,206.3,119.1c58.7,14.2,204.8,51.7,311.6-30.1c0,0,119.2-68.5,205.4-167.4c0,0-149.1,37-315.2-25.5
		c0,0-78.7-25.9-121.4,23.1C503.9,604.8,490.3,581.7,305.6,590.9z"/>
	<path id="XMLID_55_" class="st5" d="M597.5,218.9c0,0,165.5-1.8,258.1,113.9s99.7,147.7,113.9,162c14.2,14.2,49.8,23.1,78.3,10.7
		c28.5-12.5-24.9,26.7-46.3,26.7c-21.4,0,37.4,19.6,40.9,8.9c3.6-10.7-17.8,48.1-35.6,53.4s-213.6,26.7-304.3-24.9
		c-60.5-28.5-99.7,8.9-99.7,8.9s-53.4,42.7-306.1,14.2c0,0,1.8-17.8,23.1-23.1c21.4-5.3-3.6-17.8-12.5-17.8c0,0,6-15,21.4-10.4
		s-13-143.4,115.6-258.3C528.1,208.2,597.5,218.9,597.5,218.9z"/>
</g>
<g id="Cheek">
	<ellipse id="XMLID_8_" class="st13" cx="410.5" cy="641.2" rx="45.1" ry="24.9"/>
	<ellipse id="XMLID_9_" class="st13" cx="878.8" cy="644.7" rx="45.1" ry="24.9"/>
</g>
<g id="Left_Eye">
	
		<ellipse id="XMLID_35_" transform="matrix(0.9995 -3.196581e-002 3.196581e-002 0.9995 -17.4057 16.7527)" class="st14" cx="515.2" cy="552.7" rx="24.9" ry="41.5"/>
</g>
<g id="Right_Eye">
	
		<ellipse id="XMLID_11_" transform="matrix(0.9991 -4.208871e-002 4.208871e-002 0.9991 -22.2534 32.5093)" class="st14" cx="760.9" cy="544.7" rx="24.9" ry="41.5"/>
</g>
<g id="Nose">
	<path id="XMLID_27_" class="st14" d="M697.7,581.8c0,15-30.9,34.4-55.8,34.4c-23.7,0-55.8-16.6-55.8-34.4c0-19,12.3-30.3,55.6-30.3
		C686.4,551.6,697.7,562.8,697.7,581.8z"/>
</g>
<g id="Mouth">
	<path id="XMLID_16_" class="st15" d="M581,648.3c0,0,54,47,87,1"/>
</g>
<g id="Right_Ear">
	<path id="XMLID_20_" class="st16" d="M729.3,248c0,0-7.1-75.9,55.4-216c0,0,188.3,148.7,140.8,393.2
		C821.1,560.5,715.1,328.7,729.3,248z"/>
	<path id="XMLID_14_" class="st6" d="M802.9,278.9c0,0,98.1,81.5,106,110.7c7.9,29.3,19.4-141.4-42.5-233.4
		c-6.1-9.1-7.3-11.8-16.2-24.7c-54-78.3-48.1-54.3-48.8-52C798.7,87,795,231.4,802.9,278.9z"/>
</g>
<g id="Left_Ear">
	<path id="XMLID_6_" class="st17" d="M447.3,284c0,0-36.8-118.7-180.4-144.8c0,0-47.4,74.8-32.2,212c7,63,34.8,122.1,79.3,167.3
		c0.9,0.9,1.8,1.9,2.8,2.8C361.9,566.4,501.9,411,447.3,284z"/>
	<path id="XMLID_7_" class="st6" d="M389.2,367.1c0,0-44.8,73.4-62.9,131.7c-3.7,11.9-57.9-40-73.2-156.6
		c-6-45.6-0.4-103.2,10.3-167.3C263.4,174.8,359.1,240.1,389.2,367.1z"/>
</g>
</svg>
